<?xml version="1.0" encoding="UTF-8" standalone="no"?>
<!-- Created with Inkscape (http://www.inkscape.org/) -->
<svg
   xmlns:svg="http://www.w3.org/2000/svg"
   xmlns="http://www.w3.org/2000/svg"
   version="1.0"
   width="162.48"
   height="145.53999"
   id="svg4897">
  <defs
     id="defs4899" />
  <g
     transform="translate(-241.21328,-498.16038)"
     id="layer1">
    <g
       transform="translate(3.0014026,2.997503)"
       id="g4997">
      <path
         d="M 349.53253,607.11096 L 289.25263,607.11096 L 319.39258,554.90704 L 349.53253,607.11096 z "
         transform="matrix(1.0472775,0,0,1.0472775,-14.288401,-26.720292)"
         style="opacity:1;fill:none;fill-opacity:1;stroke:#000000;stroke-width:1.90971351;stroke-linecap:butt;stroke-linejoin:miter;stroke-miterlimit:4;stroke-dasharray:none;stroke-dashoffset:0;stroke-opacity:1"
         id="path4978" />
      <path
         d="M 319.76581,553.4777 C 317.13258,552.27542 317.11188,548.14865 319.76581,546.71092 C 322.43595,545.26442 322.05225,540.79219 319.76581,539.28238 C 317.49752,537.78456 317.07152,534.10359 319.76581,532.50685 C 322.42518,530.93081 322.05667,526.21266 319.76581,524.92189 C 317.45841,523.62179 317.46176,519.8652 319.76581,518.15511 C 321.89596,516.57408 322.43537,513.09879 319.8063,511.58142 C 317.13673,510.04066 317.25909,506.77571 319.8632,505.09332 C 322.42924,503.43555 322.49761,500.2597 319.92821,498.91038"
         style="fill:none;fill-rule:evenodd;stroke:#000000;stroke-width:1.5;stroke-linecap:butt;stroke-linejoin:miter;stroke-miterlimit:4;stroke-dasharray:none;stroke-opacity:1"
         id="path4674" />
      <path
         d="M 349.76499,608.9386 C 352.12281,607.2593 355.70704,609.30476 355.62519,612.32199 C 355.54282,615.35765 359.60774,617.26147 362.05849,616.03626 C 364.48979,614.82078 367.8906,616.29233 367.92627,619.42403 C 367.96148,622.51513 372.23177,624.55507 374.49504,623.21651 C 376.77466,621.86829 380.02629,623.74949 380.35525,626.5999 C 380.65938,629.23518 383.39937,631.43996 386.02798,629.92181 C 388.69711,628.38027 391.46345,630.11871 391.61839,633.21513 C 391.77104,636.26628 394.48723,637.91341 396.94047,636.36291"
         style="fill:none;fill-rule:evenodd;stroke:#000000;stroke-width:1.5;stroke-linecap:butt;stroke-linejoin:miter;stroke-miterlimit:4;stroke-dasharray:none;stroke-opacity:1"
         id="path4988" />
      <path
         d="M 241.97833,636.72226 C 241.70292,633.84068 245.26645,631.75937 247.83853,633.33887 C 250.42631,634.92803 254.10752,632.35962 254.27183,629.6246 C 254.43484,626.9113 257.40965,624.70188 260.13962,626.23684 C 262.83419,627.7519 266.73597,625.07369 266.70838,622.44436 C 266.6806,619.79604 269.93558,617.92065 272.56859,619.06097 C 275.00287,620.11522 278.28227,618.84471 278.28181,615.80919 C 278.28137,612.72689 281.17008,611.20038 283.92912,612.61441 C 286.64781,614.00779 289.43237,612.47907 289.31621,609.57925"
         style="fill:none;fill-rule:evenodd;stroke:#000000;stroke-width:1.5;stroke-linecap:butt;stroke-linejoin:miter;stroke-miterlimit:4;stroke-dasharray:none;stroke-opacity:1"
         id="path4990" />
      <path
         d="M 334.11606,589.57863 L 331.44054,574.10549 L 343.5029,584.15913 C 339.55466,583.71992 335.77024,585.92051 334.11606,589.57863 z "
         style="font-size:12px;fill-rule:evenodd;stroke-width:0.625;stroke-linejoin:round"
         id="path4884" />
      <path
         d="M 314.00606,603.69269 L 328.74395,609.11219 L 314.00606,614.53168 C 316.36055,611.33201 316.34699,606.95431 314.00606,603.69269 z "
         style="font-size:12px;fill-rule:evenodd;stroke-width:0.625;stroke-linejoin:round"
         id="path4993" />
      <path
         d="M 312.2529,578.94024 L 300.19053,588.99388 L 302.86606,573.52074 C 304.45981,577.15963 308.25779,579.33673 312.2529,578.94024 z "
         style="font-size:12px;fill-rule:evenodd;stroke-width:0.625;stroke-linejoin:round"
         id="path4995" />
    </g>
  </g>
</svg>
